<svg width="512" height="512" viewBox="0 0 100 100" fill="none" xmlns="http://www.w3.org/2000/svg">
  <rect width="100" height="100" fill="#000000" rx="0"/>
  <path 
    d="M50 20C33.4315 20 20 33.4315 20 50C20 66.5685 33.4315 80 50 80C66.5685 80 80 66.5685 80 50" 
    stroke="#A68966" 
    stroke-width="6" 
    stroke-linecap="round"
  />
  <path 
    d="M50 35C41.7157 35 35 41.7157 35 50C35 58.2843 41.7157 65 50 65C58.2843 65 65 58.2843 65 50" 
    stroke="#A68966" 
    stroke-width="4" 
    stroke-linecap="round"
  />
  <rect x="48" y="85" width="4" height="10" rx="2" fill="#A68966"/>
  <rect x="38" y="85" width="4" height="6" rx="2" fill="#A68966"/>
  <rect x="58" y="85" width="4" height="6" rx="2" fill="#A68966"/>
</svg>
